<svg width="40" height="40" viewBox="0 0 40 40" fill="none" xmlns="http://www.w3.org/2000/svg">
<g clip-path="url(#clip0_48_50)">
<path d="M19.4645 30C24.1612 30 27.0837 26.5392 27.0837 22.0742C27.0837 20.3908 26.8095 18.8708 24.8987 18.4142C25.3637 17.1408 26.7053 13.4575 26.7053 12.2775C26.7053 11.2383 26.0803 10.3675 24.9662 10.3675C23.1903 10.3675 21.5987 15.5117 21.1003 16.7383C20.7145 15.625 18.9078 10 17.3153 10C16.0778 10 15.497 10.8942 15.497 12.0192C15.497 13.3983 16.8578 16.9725 17.3512 18.3475C17.1012 18.2575 16.8303 18.1792 16.5545 18.1792C15.6228 18.1792 14.632 19.3158 14.632 20.2342C14.632 20.5817 14.827 21.07 14.9503 21.3942C13.482 21.785 12.917 22.7458 12.917 24.195C12.9128 27.015 15.6362 30 19.4645 30ZM23.4895 14.2192C23.6495 13.7383 24.3295 11.7075 24.9662 11.7075C25.3087 11.7075 25.4003 12.055 25.4003 12.3325C25.4003 13.0783 23.8645 17.2 23.5253 18.1133L22.172 17.8792L23.4895 14.2192ZM16.747 11.8875V11.8867C16.747 11.4217 17.3245 10.1017 18.5895 13.7267L19.967 17.645C19.3462 17.5942 18.8645 17.5275 18.5587 17.7C18.1245 16.575 16.747 13.0242 16.747 11.8875ZM16.6553 19.5308L16.6562 19.5317C17.822 19.5317 19.327 23.2267 19.327 23.7267C19.327 23.9258 19.132 24.1717 18.9053 24.1717C18.0728 24.1717 15.8437 21.1675 15.8437 20.355C15.847 20.0542 16.3487 19.5308 16.6553 19.5308ZM15.3153 22.5892C15.7687 22.5892 17.4762 24.945 17.4762 25.445C17.4762 25.6367 17.1695 25.7692 17.0112 25.7692C16.3703 25.7692 16.1195 25.1633 14.9778 23.7617C13.7953 24.9217 15.7937 27.1558 17.2987 27.1558C18.337 27.1558 19.0137 26.2108 18.8112 25.515C18.9587 25.515 19.1412 25.5267 19.277 25.4917C19.3212 26.55 19.6395 27.8117 20.937 27.9017C20.937 27.8667 21.017 27.6242 21.017 27.6125C21.017 26.9325 20.5953 26.3392 20.5953 25.6475C20.5953 24.5417 21.4587 23.4717 22.3345 22.8467C22.6528 22.6125 23.0395 22.4675 23.4128 22.335C23.7995 22.1908 24.2095 22.0225 24.5028 21.7333C24.4587 21.2958 24.2762 20.9092 23.8303 20.9092C22.7278 20.9092 19.0303 21.0658 19.0303 19.3583C19.0303 19.0967 19.0345 18.8467 19.7237 18.8467C21.0095 18.8467 24.2737 19.1592 25.2287 19.9833C25.9487 20.6125 26.1962 24.405 23.9945 26.8075L23.992 26.8083C22.8337 28.0583 21.3528 28.7067 19.6253 28.7067C17.2612 28.7067 15.3937 27.4333 14.4945 25.2575C13.8137 23.5625 14.6462 22.5892 15.3153 22.5892ZM20.0662 21.8858C20.4537 22.0075 20.8512 22.0433 21.2495 22.1208C20.9545 22.3317 20.6928 22.59 20.4412 22.8667C20.3295 22.535 20.1937 22.2108 20.0662 21.8858Z" fill="#DBD8D7"/>
</g>
<defs>
<clipPath id="clip0_48_50">
<rect width="20" height="20" fill="white" transform="translate(10 10)"/>
</clipPath>
</defs>
</svg>
