<svg width="24" height="24" viewBox="0 0 24 24" fill="none" xmlns="http://www.w3.org/2000/svg">
<g clip-path="url(#clip0_48_284)">
<path d="M11.4645 22C16.1612 22 19.0837 18.5392 19.0837 14.0742C19.0837 12.3908 18.8095 10.8708 16.8987 10.4142C17.3637 9.14083 18.7053 5.4575 18.7053 4.2775C18.7053 3.23833 18.0803 2.3675 16.9662 2.3675C15.1903 2.3675 13.5987 7.51167 13.1003 8.73833C12.7145 7.625 10.9078 2 9.31533 2C8.07783 2 7.497 2.89417 7.497 4.01917C7.497 5.39833 8.85783 8.9725 9.35116 10.3475C9.10116 10.2575 8.83033 10.1792 8.5545 10.1792C7.62283 10.1792 6.632 11.3158 6.632 12.2342C6.632 12.5817 6.827 13.07 6.95033 13.3942C5.482 13.785 4.917 14.7458 4.917 16.195C4.91283 19.015 7.63616 22 11.4645 22ZM15.4895 6.21917C15.6495 5.73833 16.3295 3.7075 16.9662 3.7075C17.3087 3.7075 17.4003 4.055 17.4003 4.3325C17.4003 5.07833 15.8645 9.2 15.5253 10.1133L14.172 9.87917L15.4895 6.21917ZM8.747 3.8875V3.88667C8.747 3.42167 9.3245 2.10167 10.5895 5.72667L11.967 9.645C11.3462 9.59417 10.8645 9.5275 10.5587 9.7C10.1245 8.575 8.747 5.02417 8.747 3.8875ZM8.65533 11.5308L8.65616 11.5317C9.822 11.5317 11.327 15.2267 11.327 15.7267C11.327 15.9258 11.132 16.1717 10.9053 16.1717C10.0728 16.1717 7.84366 13.1675 7.84366 12.355C7.847 12.0542 8.34866 11.5308 8.65533 11.5308ZM7.31533 14.5892C7.76866 14.5892 9.47616 16.945 9.47616 17.445C9.47616 17.6367 9.1695 17.7692 9.01116 17.7692C8.37033 17.7692 8.1195 17.1633 6.97783 15.7617C5.79533 16.9217 7.79366 19.1558 9.29866 19.1558C10.337 19.1558 11.0137 18.2108 10.8112 17.515C10.9587 17.515 11.1412 17.5267 11.277 17.4917C11.3212 18.55 11.6395 19.8117 12.937 19.9017C12.937 19.8667 13.017 19.6242 13.017 19.6125C13.017 18.9325 12.5953 18.3392 12.5953 17.6475C12.5953 16.5417 13.4587 15.4717 14.3345 14.8467C14.6528 14.6125 15.0395 14.4675 15.4128 14.335C15.7995 14.1908 16.2095 14.0225 16.5028 13.7333C16.4587 13.2958 16.2762 12.9092 15.8303 12.9092C14.7278 12.9092 11.0303 13.0658 11.0303 11.3583C11.0303 11.0967 11.0345 10.8467 11.7237 10.8467C13.0095 10.8467 16.2737 11.1592 17.2287 11.9833C17.9487 12.6125 18.1962 16.405 15.9945 18.8075L15.992 18.8083C14.8337 20.0583 13.3528 20.7067 11.6253 20.7067C9.26116 20.7067 7.39366 19.4333 6.4945 17.2575C5.81366 15.5625 6.64616 14.5892 7.31533 14.5892ZM12.0662 13.8858C12.4537 14.0075 12.8512 14.0433 13.2495 14.1208C12.9545 14.3317 12.6928 14.59 12.4412 14.8667C12.3295 14.535 12.1937 14.2108 12.0662 13.8858Z" fill="#505F79"/>
</g>
<defs>
<clipPath id="clip0_48_284">
<rect width="20" height="20" fill="white" transform="translate(2 2)"/>
</clipPath>
</defs>
</svg>
