<svg width="40" height="40" viewBox="0 0 40 40" fill="none" xmlns="http://www.w3.org/2000/svg">
<g clip-path="url(#clip0_48_34)">
<g clip-path="url(#clip1_48_34)">
<path d="M28.9989 17.4611C28.9989 16.3212 28.6329 15.2504 27.9342 14.3178C28.2004 13.4197 28.2669 12.2798 28.2004 10.9672C28.1671 10.4145 27.7345 10 27.2022 10C26.9028 10 24.3741 10.0345 22.9101 11.3817C21.6458 11.1399 20.315 11.1399 19.0174 11.3817C17.5867 10.0345 15.058 10 14.7253 10C14.193 10 13.7604 10.4145 13.7272 10.9672C13.6273 12.2798 13.7272 13.4197 13.9933 14.3178C13.2946 15.285 12.9286 16.3558 12.9286 17.4611C12.9286 19.8791 14.7253 22.0553 17.4536 23.0915C17.3538 23.2988 17.2872 23.5406 17.2207 23.7824C14.326 23.4715 12.9619 20.7427 12.8954 20.639C12.6625 20.1209 12.0636 19.9136 11.5645 20.19C11.0654 20.4318 10.8658 21.0535 11.132 21.5717C11.1985 21.7444 13.0284 25.4404 17.0543 25.8549V28.9637C17.0543 29.5509 17.4869 30 18.0525 30H23.875C24.4406 30 24.8732 29.5509 24.8732 28.9637V24.8532C24.8732 24.2314 24.7401 23.6442 24.5072 23.1261C27.2022 22.0553 28.9989 19.9136 28.9989 17.4611Z" fill="#DBD8D7"/>
</g>
</g>
<defs>
<clipPath id="clip0_48_34">
<rect width="18" height="20" fill="white" transform="translate(11 10)"/>
</clipPath>
<clipPath id="clip1_48_34">
<rect width="18" height="20" fill="white" transform="translate(11 10)"/>
</clipPath>
</defs>
</svg>
