<svg width="40" height="40" viewBox="0 0 40 40" fill="none" xmlns="http://www.w3.org/2000/svg">
<path d="M28.4042 13.8804L30 12.3377V12H24.4717L20.5317 21.9099L16.0492 12H10.2525V12.3377L12.1167 14.6055C12.2983 14.7731 12.3933 15.0181 12.3692 15.2648V24.1768C12.4267 24.4977 12.3233 24.8278 12.1 25.0611L10 27.6328V27.9663H15.9542V27.6286L13.8542 25.0611C13.6267 24.8269 13.5192 24.5027 13.565 24.1768V16.4682L18.7917 27.9705H19.3992L23.8933 16.4682V25.6312C23.8933 25.8728 23.8933 25.9225 23.7367 26.0808L22.12 27.6615V28H29.9633V27.6623L28.405 26.1204C28.2683 26.016 28.1975 25.8408 28.2267 25.6707V14.3301C28.1975 14.1592 28.2675 13.984 28.4042 13.8804Z" fill="#DBD8D7"/>
</svg>
