<svg width="24" height="24" viewBox="0 0 24 24" fill="none" xmlns="http://www.w3.org/2000/svg">
<g clip-path="url(#clip0_48_833)">
<g clip-path="url(#clip1_48_833)">
<path d="M20.9989 9.46114C20.9989 8.32124 20.6329 7.25043 19.9342 6.31779C20.2004 5.41969 20.2669 4.27979 20.2004 2.96718C20.1671 2.41451 19.7345 2 19.2022 2C18.9028 2 16.3741 2.03454 14.9101 3.38169C13.6458 3.1399 12.315 3.1399 11.0174 3.38169C9.58667 2.03454 7.05802 2 6.7253 2C6.19296 2 5.76042 2.41451 5.72715 2.96718C5.62734 4.27979 5.72715 5.41969 5.99333 6.31779C5.29462 7.28497 4.92863 8.35579 4.92863 9.46114C4.92863 11.8791 6.7253 14.0553 9.45358 15.0915C9.35377 15.2988 9.28723 15.5406 9.22068 15.7824C6.32604 15.4715 4.9619 12.7427 4.89536 12.639C4.66246 12.1209 4.06357 11.9136 3.56449 12.19C3.06541 12.4318 2.86578 13.0535 3.13196 13.5717C3.1985 13.7444 5.02845 17.4404 9.05432 17.8549V20.9637C9.05432 21.5509 9.48686 22 10.0525 22H15.875C16.4406 22 16.8732 21.5509 16.8732 20.9637V16.8532C16.8732 16.2314 16.7401 15.6442 16.5072 15.1261C19.2022 14.0553 20.9989 11.9136 20.9989 9.46114Z" fill="white"/>
</g>
</g>
<defs>
<clipPath id="clip0_48_833">
<rect width="18" height="20" fill="white" transform="translate(3 2)"/>
</clipPath>
<clipPath id="clip1_48_833">
<rect width="18" height="20" fill="white" transform="translate(3 2)"/>
</clipPath>
</defs>
</svg>
