<svg width="40" height="40" viewBox="0 0 40 40" fill="none" xmlns="http://www.w3.org/2000/svg">
<g clip-path="url(#clip0_48_54)">
<g clip-path="url(#clip1_48_54)">
<path d="M29.7665 10.3698C29.4331 9.97109 28.8665 9.87143 28.4331 10.1704L26.4998 11.4993C25.5998 10.5359 24.3331 10.0043 22.9665 10.0043C20.2665 10.0043 18.0331 12.197 18.0331 14.9212C18.0331 15.3199 18.0665 15.6854 18.1665 16.0508C15.8331 15.5525 14.4331 13.8581 13.8998 10.8017C13.8331 10.403 13.5331 10.104 13.1331 10.0043C12.7665 9.90465 12.3665 10.0708 12.1331 10.3698C12.0665 10.4362 6.56646 18.0774 14.5331 24.5558C13.7665 26.1837 11.4665 27.579 10.5665 28.0441C10.1331 28.2435 9.93313 28.7086 10.0331 29.1737C10.1331 29.6388 10.5331 29.9378 10.9998 29.9378H12.7331C22.8665 29.9378 27.4665 24.9212 27.5665 13.692L29.6665 11.6987C30.0665 11.3664 30.0998 10.7684 29.7665 10.3698Z" fill="#DBD8D7"/>
</g>
</g>
<defs>
<clipPath id="clip0_48_54">
<rect width="20" height="20" fill="white" transform="translate(10 10)"/>
</clipPath>
<clipPath id="clip1_48_54">
<rect width="20" height="19.9667" fill="white" transform="translate(10 9.97144)"/>
</clipPath>
</defs>
</svg>
